<?xml version="1.0" encoding="UTF-8" standalone="no"?>
<!DOCTYPE svg PUBLIC "-//W3C//DTD SVG 1.1//EN" "http://www.w3.org/Graphics/SVG/1.1/DTD/svg11.dtd">
<svg width="100%" height="100%" viewBox="0 -2 35 35" version="1.1" xmlns="http://www.w3.org/2000/svg" xmlns:xlink="http://www.w3.org/1999/xlink" xml:space="preserve" xmlns:serif="http://www.serif.com/" style="fill-rule:evenodd;clip-rule:evenodd;stroke-linejoin:round;stroke-miterlimit:2;">
    <path d="M30.86,13.129C31.605,14.197 32.003,15.468 32,16.77C31.994,18.077 31.588,19.351 30.838,20.422C30.089,21.491 29.031,22.304 27.806,22.753C28.163,23.734 28.193,24.803 27.892,25.802C27.59,26.801 26.974,27.676 26.134,28.295C25.295,28.912 24.278,29.238 23.237,29.225C22.196,29.211 21.187,28.859 20.364,28.221C19.254,29.777 17.678,30.941 15.864,31.543C14.052,32.144 12.095,32.153 10.277,31.566C8.458,30.978 6.873,29.827 5.751,28.279C4.627,26.728 4.022,24.862 4.024,22.946C4.024,22.367 4.077,21.79 4.184,21.221C2.955,20.781 1.893,19.97 1.145,18.9C0.395,17.828 -0.005,16.55 0,15.242C0.007,13.935 0.413,12.661 1.163,11.59C1.913,10.521 2.972,9.708 4.198,9.26C3.836,8.279 3.802,7.207 4.101,6.205C4.4,5.203 5.016,4.325 5.856,3.703C6.696,3.083 7.714,2.755 8.758,2.768C9.801,2.78 10.812,3.133 11.636,3.773C12.838,2.095 14.577,0.879 16.566,0.327C18.553,-0.224 20.669,-0.076 22.56,0.746C24.453,1.569 26.009,3.015 26.967,4.844C27.927,6.675 28.235,8.779 27.84,10.809C29.062,11.252 30.117,12.063 30.86,13.129ZM12.58,13.787L19.582,16.998L26.648,10.785C26.75,10.272 26.801,9.751 26.8,9.228C26.801,7.536 26.261,5.888 25.26,4.524C24.261,3.162 22.852,2.157 21.24,1.655C19.629,1.154 17.9,1.185 16.308,1.741C14.714,2.298 13.34,3.352 12.388,4.748L11.214,10.866L12.581,13.786L12.58,13.787ZM5.333,21.228C5.112,22.317 5.121,23.44 5.36,24.526C5.599,25.611 6.062,26.635 6.72,27.53C7.724,28.896 9.14,29.903 10.76,30.404C12.378,30.904 14.113,30.87 15.71,30.307C17.309,29.743 18.685,28.681 19.636,27.277L20.802,21.175L19.247,18.19L12.217,14.979L5.332,21.227L5.333,21.228ZM10.088,10.204L5.288,9.067L5.29,9.065C5.012,8.294 4.99,7.454 5.226,6.669C5.462,5.885 5.945,5.197 6.602,4.707C7.259,4.22 8.057,3.959 8.875,3.963C9.693,3.967 10.488,4.236 11.14,4.73L10.088,10.204ZM4.872,10.214C3.833,10.558 2.927,11.216 2.277,12.096C1.626,12.978 1.263,14.039 1.237,15.136C1.212,16.232 1.525,17.309 2.135,18.22C2.744,19.13 3.619,19.83 4.64,20.22L11.373,14.119L10.138,11.469L4.872,10.214ZM23.158,28.062C22.331,28.061 21.527,27.785 20.873,27.277L21.91,21.823L26.71,22.948C26.92,23.522 26.988,24.139 26.91,24.745C26.831,25.351 26.608,25.93 26.259,26.432C25.912,26.934 25.449,27.344 24.909,27.628C24.369,27.911 23.768,28.06 23.158,28.062ZM21.848,20.563L27.128,21.801C28.183,21.444 29.1,20.767 29.75,19.863C30.402,18.958 30.756,17.872 30.763,16.757C30.763,15.682 30.436,14.633 29.827,13.747C29.219,12.863 28.355,12.185 27.352,11.803L20.448,17.873L21.848,20.563Z"/>
</svg>
