<?xml version="1.0" encoding="UTF-8"?>
<svg width="3600pt" height="3600pt" version="1.1" viewBox="0 0 3600 3600" xmlns="http://www.w3.org/2000/svg">
 <path d="m1044 3420c230.4 0 450-90 612-252l478.8-478.8c136.8-136.8 216-309.6 241.2-486 32.398 14.398 68.398 21.602 104.4 21.602 75.602 0 147.6-28.801 201.6-82.801l486-482.4c338.4-338.4 338.4-885.6 0-1224-162-162-381.6-252-612-252s-450 90-612 252l-482.4 478.8c-136.8 136.8-216 309.6-241.2 486-32.398-14.398-68.398-21.602-104.4-21.602-75.602 0-147.6 28.801-201.6 82.801l-482.4 478.8c-338.4 338.4-338.4 885.6 0 1224 165.6 165.6 381.6 255.6 612 255.6zm1267.2-1710c-43.199-90-97.199-176.4-172.8-248.4-54-54-126-82.801-201.6-82.801-50.398 0-97.199 14.398-140.4 36 14.398-36 36-72 64.801-100.8l478.8-478.8c57.602-57.602 129.6-86.398 212.4-86.398 79.199 0 154.8 32.398 212.4 86.398 57.602 57.602 86.398 129.6 86.398 212.4 0 79.199-32.398 154.8-86.398 212.4zm-723.6-669.6 478.8-478.8c133.2-129.6 306-201.6 489.6-201.6s356.4 72 486 201.6c266.4 266.4 266.4 702 0 968.4l-482.4 482.4c-39.602 39.602-108 39.602-147.6 0-39.602-39.602-39.602-108 0-147.6l478.8-478.8c187.2-187.2 187.2-489.6 0-676.8-90-90-208.8-140.4-338.4-140.4-126 0-248.4 50.398-338.4 140.4l-478.8 478.8c-90 90-140.4 208.8-140.4 338.4 0 129.6 50.398 248.4 140.4 338.4 39.602 39.602 39.602 108 0 147.6-39.602 39.602-108 39.602-147.6 0-266.4-270-266.4-705.6 0.003906-972zm-298.8 849.6c43.199 90 97.199 176.4 172.8 248.4 54 54 126 82.801 201.6 82.801 50.398 0 97.199-14.398 140.4-36-14.398 36-36 72-64.801 100.8l-482.4 478.8c-57.602 57.602-129.6 86.398-212.4 86.398-79.199 0-154.8-32.398-212.4-86.398-57.602-57.602-86.398-129.6-86.398-212.4 0-79.199 32.398-154.8 86.398-212.4zm-727.2 180 478.8-478.8c18-18 46.801-28.801 72-28.801 28.801 0 54 10.801 72 28.801 39.602 39.602 39.602 108 0 147.6l-475.2 478.8c-187.2 187.2-187.2 489.6 0 676.8 90 90 208.8 140.4 338.4 140.4 126 0 248.4-50.398 338.4-140.4l478.8-482.4c90-90 140.4-208.8 140.4-338.4 0-129.6-50.398-248.4-140.4-338.4-39.602-39.602-39.602-108 0-147.6 39.602-39.602 108-39.602 147.6 0 266.4 266.4 266.4 702 0 968.4l-482.4 482.4c-129.6 129.6-302.4 201.6-486 201.6s-356.4-72-486-201.6c-266.4-266.4-266.4-702 3.6016-968.4z"/>
</svg>
