<?xml version="1.0" encoding="UTF-8"?>
<svg width="3600pt" height="3600pt" version="1.1" viewBox="0 0 3600 3600" xmlns="http://www.w3.org/2000/svg">
 <g>
  <path d="m3225 3075v-2325c0-19.891-7.9023-38.969-21.969-53.031-14.062-14.066-33.141-21.969-53.031-21.969h-450c-19.891 0-38.969 7.9023-53.031 21.969-14.066 14.062-21.969 33.141-21.969 53.031v2325h-150v-1725c0-19.891-7.9023-38.969-21.969-53.031-14.062-14.066-33.141-21.969-53.031-21.969h-450c-19.891 0-38.969 7.9023-53.031 21.969-14.066 14.062-21.969 33.141-21.969 53.031v1725h-150v-975c0-19.891-7.9023-38.969-21.969-53.031-14.062-14.066-33.141-21.969-53.031-21.969h-450c-19.891 0-38.969 7.9023-53.031 21.969-14.066 14.062-21.969 33.141-21.969 53.031v975h-150v-1200c0-19.891-7.9023-38.969-21.969-53.031-14.062-14.066-33.141-21.969-53.031-21.969h-450c-19.891 0-38.969 7.9023-53.031 21.969-14.066 14.062-21.969 33.141-21.969 53.031v1200c-26.793 0-51.555 14.293-64.953 37.5-13.395 23.207-13.395 51.793 0 75 13.398 23.207 38.16 37.5 64.953 37.5h2850c26.793 0 51.555-14.293 64.953-37.5 13.395-23.207 13.395-51.793 0-75-13.398-23.207-38.16-37.5-64.953-37.5zm-2700 0v-1125h300v1125zm750 0v-900h300v900zm750 0v-1650h300v1650zm750 0v-2250h300v2250z"/>
  <path d="m728.25 1478.2 321.75-322.5 321.75 322.5c14.082 14.199 33.254 22.184 53.25 22.184s39.168-7.9844 53.25-22.184l975-975c19.023-19.023 26.453-46.754 19.492-72.742-6.9648-25.988-27.262-46.285-53.25-53.25-25.988-6.9609-53.719 0.46875-72.742 19.492l-921.75 922.5-321.75-322.5c-14.082-14.199-33.254-22.184-53.25-22.184s-39.168 7.9844-53.25 22.184l-375 375c-19.023 19.023-26.453 46.754-19.492 72.742 6.9648 25.988 27.262 46.285 53.25 53.25 25.988 6.9609 53.719-0.46875 72.742-19.492z"/>
 </g>
</svg>
