<?xml version="1.0" encoding="UTF-8"?>
<svg width="3600pt" height="3600pt" version="1.1" viewBox="0 0 3600 3600" xmlns="http://www.w3.org/2000/svg">
 <g>
  <path d="m2250 456.12c-38.879-38.879-90-60.121-144.72-60.121h-1180.4c-113.04 0-204.84 91.801-204.84 204.84v2398.3c0 113.04 91.801 204.84 204.84 204.84h1750.3c113.04 0 204.84-91.801 204.84-204.84v-1828.1c0-54.719-21.238-106.2-60.121-144.72zm-18 185.76 402.12 402.12h-341.28c-33.48 0-60.84-27.359-60.84-60.84zm504 2357.3c0 33.48-27.359 60.84-60.84 60.84h-1750.3c-33.48 0-60.84-27.359-60.84-60.84v-2398.3c0-33.48 27.359-60.84 60.84-60.84h1163.2v443.16c0 113.04 91.801 204.84 204.84 204.84h443.16z"/>
  <path d="m1224 1152h504c39.602 0 72-32.398 72-72s-32.398-72-72-72h-504c-39.602 0-72 32.398-72 72s32.398 72 72 72z"/>
  <path d="m1152 1476c0 39.602 32.398 72 72 72h1152c39.602 0 72-32.398 72-72s-32.398-72-72-72h-1152c-39.602 0-72 32.398-72 72z"/>
  <path d="m2376 1800h-1152c-39.602 0-72 32.398-72 72s32.398 72 72 72h1152c39.602 0 72-32.398 72-72s-32.398-72-72-72z"/>
  <path d="m2376 2196h-1152c-39.602 0-72 32.398-72 72s32.398 72 72 72h1152c39.602 0 72-32.398 72-72s-32.398-72-72-72z"/>
  <path d="m2376 2592h-1152c-39.602 0-72 32.398-72 72s32.398 72 72 72h1152c39.602 0 72-32.398 72-72s-32.398-72-72-72z"/>
 </g>
</svg>
