<?xml version="1.0" encoding="UTF-8"?>
<svg width="3600pt" height="3600pt" version="1.1" viewBox="0 0 3600 3600" xmlns="http://www.w3.org/2000/svg">
 <g>
  <path d="m3243.6 2695.7c-44.398-32.863-84.227-71.48-118.44-114.84-83.52-96.84-178.2-204.84-367.56-204.84-189.36 0-284.04 108-367.56 204.84-75.602 86.762-135.36 155.16-258.84 155.16s-183.6-68.398-259.2-155.16c-83.52-96.84-178.2-204.84-367.56-204.84s-284.04 108-367.56 204.84c-75.242 86.762-135 155.16-258.84 155.16-123.84 0-183.24-68.398-258.84-155.16-51.773-68.012-117.11-124.53-191.88-165.96-22.961-10.414-49.695-8.0625-70.48 6.1992-20.789 14.262-32.605 38.359-31.148 63.531 1.457 25.168 15.973 47.742 38.27 59.512 57.016 33.57 106.82 78.109 146.52 131.04 83.879 96.84 178.56 204.84 367.56 204.84s284.04-108 367.56-204.84c75.602-86.762 135.36-155.16 258.84-155.16 123.48 0 183.24 68.398 258.84 155.16 83.52 96.84 178.2 204.84 367.92 204.84s284.04-108 367.56-204.84c75.242-86.762 135-155.16 258.84-155.16 123.84 0 183.6 68.398 258.84 155.16 42.566 53.539 92.363 100.91 147.96 140.76 15.941 10.883 35.586 14.91 54.523 11.176 18.941-3.7344 35.586-14.914 46.203-31.035s14.32-35.828 10.273-54.703c-4.0469-18.871-15.504-35.332-31.797-45.68z"/>
  <path d="m3243.6 2155.7c-44.387-32.871-84.215-71.488-118.44-114.84-83.52-96.84-178.2-204.84-367.56-204.84-189.36 0-284.04 108-367.56 204.84-75.602 86.762-135.36 155.16-259.2 155.16s-183.24-68.398-258.84-155.16c-83.52-96.84-178.2-204.84-367.56-204.84s-284.04 108-367.56 204.84c-75.242 86.762-135 155.16-258.84 155.16-123.84 0-183.24-68.398-258.84-155.16-51.773-68.012-117.11-124.53-191.88-165.96-22.961-10.414-49.695-8.0625-70.48 6.1992-20.789 14.262-32.605 38.359-31.148 63.531 1.457 25.168 15.973 47.742 38.27 59.512 57.016 33.57 106.82 78.109 146.52 131.04 83.879 96.84 178.56 204.84 367.56 204.84s284.04-108 367.56-204.84c75.602-86.762 135-155.16 258.84-155.16s183.6 68.398 258.84 155.16c83.52 96.84 178.2 204.84 367.56 204.84s284.04-108 367.56-204.84c75.602-86.762 135.36-155.16 259.2-155.16 123.84 0 183.6 68.398 258.84 155.16 42.562 53.543 92.359 100.92 147.96 140.76 15.941 10.883 35.586 14.91 54.523 11.176 18.941-3.7344 35.586-14.914 46.203-31.035s14.32-35.828 10.273-54.703c-4.0469-18.871-15.504-35.332-31.797-45.68z"/>
  <path d="m3243.6 1579.7c-44.398-32.863-84.227-71.48-118.44-114.84-83.52-96.84-178.2-204.84-367.56-204.84-189.36 0-284.04 108-367.56 204.84-75.602 86.762-135.36 155.16-258.84 155.16s-183.6-68.398-259.2-155.16c-83.52-96.84-178.2-204.84-367.56-204.84s-284.04 108-367.56 204.84c-75.242 86.762-135 155.16-258.84 155.16-123.84 0-183.24-68.398-258.84-155.16-51.773-68.012-117.11-124.53-191.88-165.96-22.961-10.414-49.695-8.0625-70.48 6.1992-20.789 14.262-32.605 38.359-31.148 63.531 1.457 25.168 15.973 47.742 38.27 59.512 57.016 33.57 106.82 78.109 146.52 131.04 83.879 96.84 178.56 204.84 367.56 204.84s284.04-108 367.56-204.84c75.602-86.762 135.36-155.16 258.84-155.16 123.48 0 183.24 68.398 258.84 155.16 83.52 96.84 178.2 204.84 367.92 204.84s284.04-108 367.56-204.84c75.242-86.762 135-155.16 258.84-155.16 123.84 0 183.6 68.398 258.84 155.16 42.566 53.539 92.363 100.91 147.96 140.76 15.941 10.883 35.586 14.91 54.523 11.176 18.941-3.7344 35.586-14.914 46.203-31.035s14.32-35.828 10.273-54.703c-4.0469-18.871-15.504-35.332-31.797-45.68z"/>
  <path d="m3243.6 1039.7c-44.387-32.871-84.215-71.488-118.44-114.84-83.52-96.84-178.2-204.84-367.56-204.84-189.36 0-284.04 108-367.56 204.84-75.602 86.762-135.36 155.16-259.2 155.16s-183.24-68.398-258.84-155.16c-83.52-96.84-178.2-204.84-367.56-204.84s-284.04 108-367.56 204.84c-75.242 86.762-135 155.16-258.84 155.16-123.84 0-183.24-68.398-258.84-155.16-51.773-68.012-117.11-124.53-191.88-165.96-22.961-10.414-49.695-8.0625-70.48 6.1992-20.789 14.262-32.605 38.359-31.148 63.531 1.457 25.168 15.973 47.742 38.27 59.512 57.016 33.57 106.82 78.109 146.52 131.04 83.879 96.84 178.56 204.84 367.56 204.84s284.04-108 367.56-204.84c75.602-86.762 135-155.16 258.84-155.16s183.6 68.398 258.84 155.16c83.52 96.84 178.2 204.84 367.56 204.84s284.04-108 367.56-204.84c75.602-86.762 135.36-155.16 259.2-155.16 123.84 0 183.6 68.398 258.84 155.16 42.562 53.543 92.359 100.92 147.96 140.76 15.941 10.883 35.586 14.91 54.523 11.176 18.941-3.7344 35.586-14.914 46.203-31.035s14.32-35.828 10.273-54.703c-4.0469-18.871-15.504-35.332-31.797-45.68z"/>
 </g>
</svg>
