<?xml version="1.0" encoding="UTF-8"?>
<svg width="3600pt" height="3600pt" version="1.1" viewBox="0 0 3600 3600" xmlns="http://www.w3.org/2000/svg">
 <path d="m1800 2927.6c-29.477 0-53.324 23.887-53.324 53.324v94.988c0 29.477 23.852 53.324 53.324 53.324 29.438 0 53.324-23.852 53.324-53.324v-94.988c0-29.438-23.848-53.324-53.324-53.324zm-160.61-300.26c-160.09-42.898-293.85-145.57-376.76-289.09-82.836-143.55-104.85-310.8-61.949-470.89 42.898-160.09 145.54-293.93 289.12-376.76 143.55-82.875 310.8-104.89 470.89-61.988 28.387 7.6133 57.676-9.2617 65.25-37.688 7.6875-28.461-9.2266-57.676-37.613-65.289-187.61-50.25-383.59-24.449-551.81 72.676-168.23 97.086-288.52 253.91-338.81 441.52-50.25 187.61-24.449 383.55 72.676 551.81 97.086 168.19 253.88 288.52 441.45 338.81 4.6875 1.2383 9.3008 1.8008 13.875 1.8008 23.551 0 45.074-15.676 51.488-39.562 7.5391-28.465-9.375-57.715-37.801-65.363zm863.93-1378.1-67.199 67.199c-20.773 20.812-20.773 54.562 0 75.375 10.387 10.426 24.074 15.637 37.727 15.637 13.648 0 27.262-5.2109 37.727-15.637l67.086-67.164c20.887-20.852 20.887-54.562 0-75.414-20.777-20.809-54.566-20.809-75.34 0.003906zm-606.68 778.69c0 53.289-43.312 96.637-96.637 96.637s-96.637-43.352-96.637-96.637c0-53.289 43.312-96.637 96.637-96.637s96.637 43.348 96.637 96.637zm395.85-492.41c20.812 20.812 20.812 54.562 0 75.375l-316.12 316.12c17.062 29.773 26.961 64.199 26.961 100.91 0 112.12-91.164 203.29-203.29 203.29s-203.29-91.164-203.29-203.29c0-112.09 91.164-203.25 203.29-203.25 36.711 0 71.176 9.8242 100.91 26.926l316.12-316.12c20.812-20.777 54.562-20.777 75.414 0.035157zm-1204 1128.6c20.852-20.852 54.562-20.852 75.414 0 20.812 20.812 20.812 54.562 0 75.375l-67.164 67.164c-10.426 10.426-24.074 15.637-37.727 15.637-13.613 0-27.301-5.1758-37.648-15.637-20.887-20.812-20.887-54.602 0-75.414zm1423.1 0c-20.887-20.852-54.602-20.852-75.449 0-20.773 20.812-20.773 54.562 0 75.375l67.199 67.164c10.387 10.426 24.039 15.637 37.727 15.637 13.574 0 27.262-5.1758 37.648-15.637 20.887-20.812 20.887-54.602 0-75.414zm336.38-689.51h-94.988c-29.438 0-53.324 23.887-53.324 53.324 0 29.477 23.852 53.324 53.324 53.324h94.988c29.477 0 53.324-23.852 53.324-53.324 0-29.398-23.848-53.324-53.324-53.324zm323.66 53.324c0 756.3-615.3 1371.6-1371.6 1371.6-756.3 0-1371.6-615.26-1371.6-1371.6 0-756.26 615.3-1371.6 1371.6-1371.6 756.26 0.039062 1371.6 615.34 1371.6 1371.6zm-2562.6-1017.6c0 2.5508 0.67578 6.2617 3.8633 9.4141l56.25 56.25c27.148-32.102 55.613-63.301 85.648-93.336 30.074-30.039 61.238-58.539 93.336-85.648l-56.176-56.25c-5.1367-5.1367-13.801-5.1367-18.863 0l-160.16 160.12c-3.2188 3.2227-3.8945 6.8984-3.8945 9.4453zm1064.5-573.3v118.12c41.887-3.5625 84.074-5.4375 126.56-5.4375s84.711 1.875 126.56 5.4375v-118.12zm381.86-106.65c7.1992 0 13.312-6.0742 13.312-13.312v-103.43c0-7.1992-6.1133-13.352-13.312-13.352l-510.56 0.003906c-7.1992 0-13.312 6.1133-13.312 13.352v103.39c0 7.2383 6.1484 13.312 13.312 13.312h510.56zm696.68 566.66c32.062 27.113 63.262 55.613 93.301 85.648 30.039 30.039 58.5 61.238 85.648 93.336l56.289-56.25c3.1875-3.1875 3.8242-6.8984 3.8242-9.4141 0-2.5508-0.67578-6.2266-3.8242-9.4492l-160.2-160.12c-5.0625-5.1367-13.762-5.1367-18.789 0zm526.27 1130.9c0 394.88-153.79 766.09-432.98 1045.3-279.19 279.23-650.44 432.98-1045.3 432.98-394.88 0-766.09-153.75-1045.3-432.98-279.19-279.15-432.98-650.4-432.98-1045.3 0-315.98 98.586-616.76 281.02-867.41l-65.324-65.324c-22.688-22.648-35.137-52.801-35.137-84.863s12.449-62.211 35.137-84.824l160.09-160.16c22.688-22.613 52.801-35.102 84.863-35.102 32.023 0 62.176 12.488 84.824 35.102l65.324 65.324c188.06-136.88 404.44-226.46 634.27-262.69v-130.99h-22.086c-66.113 0-119.96-53.812-119.96-119.96v-103.39c0-66.148 53.852-120 119.96-120h510.56c66.074 0 119.93 53.852 119.93 120v103.39c0 66.148-53.852 119.96-119.93 119.96h-22.086v130.99c229.8 36.227 446.18 125.81 634.24 262.69l65.324-65.324c22.688-22.613 52.801-35.102 84.824-35.102 32.062 0 62.176 12.488 84.863 35.102l160.09 160.16c22.688 22.648 35.137 52.762 35.137 84.824s-12.449 62.211-35.137 84.863l-65.289 65.324c182.41 250.69 280.99 551.48 280.99 867.41zm-292.8 0c0 653.66-531.82 1185.4-1185.4 1185.4s-1185.4-531.79-1185.4-1185.4c0-653.62 531.82-1185.4 1185.4-1185.4s1185.4 531.82 1185.4 1185.4zm106.65 0c0 712.5-579.6 1292.1-1292.1 1292.1-712.5 0-1292.1-579.6-1292.1-1292.1-0.039062-712.43 579.56-1292.1 1292.1-1292.1s1292.1 579.64 1292.1 1292.1zm-2245.1-53.324h-94.988c-29.477 0-53.324 23.887-53.324 53.324 0 29.477 23.852 53.324 53.324 53.324h94.988c29.438 0 53.324-23.852 53.324-53.324-0.039062-29.398-23.887-53.324-53.324-53.324zm241.43-582.79-67.125-67.164c-20.887-20.852-20.887-54.562 0-75.414 20.773-20.812 54.602-20.812 75.414 0l67.164 67.199c20.812 20.812 20.812 54.562 0 75.375-10.387 10.426-24.039 15.637-37.727 15.637-13.691 0.003907-27.305-5.207-37.727-15.633zm658.2-316.8c0 29.438 23.852 53.324 53.324 53.324 29.438 0 53.324-23.852 53.324-53.324v-94.988c0-29.477-23.852-53.324-53.324-53.324-29.477 0-53.324 23.852-53.324 53.324z" fill-rule="evenodd"/>
</svg>
