<?xml version="1.0" encoding="UTF-8"?>
<svg width="3600pt" height="3600pt" version="1.1" viewBox="0 0 3600 3600" xmlns="http://www.w3.org/2000/svg">
 <g>
  <path d="m2435.9 1813.8c-138.85 0-274.58 41.176-390.03 118.32s-205.43 186.79-258.55 315.08c-53.129 128.28-67.02 269.44-39.918 405.62 27.102 136.18 93.977 261.26 192.17 359.43 98.195 98.168 223.3 165.01 359.48 192.08 136.18 27.066 277.34 13.141 405.61-40.02 128.27-53.16 237.89-143.17 315.01-258.63 77.113-115.47 118.26-251.21 118.22-390.06-0.20703-186.1-74.242-364.52-205.85-496.09-131.61-131.58-310.05-205.57-496.15-205.73zm0 1295.7c-157.54 0-308.62-62.582-420.02-173.98-111.4-111.39-173.98-262.48-173.98-420.02 0-157.54 62.582-308.62 173.98-420.02 111.39-111.39 262.48-173.98 420.02-173.98 157.54 0 308.62 62.582 420.02 173.98 111.39 111.4 173.98 262.48 173.98 420.02-0.14062 157.49-62.77 308.5-174.14 419.86-111.36 111.36-262.37 173.99-419.86 174.14z"/>
  <path d="m2435.9 1629.2c-235.09 0-460.54 93.387-626.77 259.62-166.23 166.23-259.62 391.69-259.62 626.77s93.387 460.54 259.62 626.77c166.23 166.23 391.69 259.62 626.77 259.62 235.09 0 460.54-93.387 626.78-259.62 166.23-166.23 259.62-391.69 259.62-626.77-0.27734-235-93.754-460.3-259.93-626.47-166.17-166.17-391.46-259.65-626.47-259.93zm0 1664.8c-206.44 0-404.43-82.008-550.41-227.98-145.98-145.98-227.98-343.96-227.98-550.41 0-206.45 82.008-404.43 227.98-550.41 145.98-145.98 343.96-227.99 550.41-227.99 206.45 0 404.43 82.012 550.41 227.99 145.98 145.98 227.99 343.96 227.99 550.41-0.23047 206.37-82.312 404.23-228.24 550.15-145.93 145.93-343.78 228.01-550.16 228.24z"/>
  <path d="m2551.1 2288.6c5.3594 13.285 15.773 23.898 28.953 29.504 13.184 5.6094 28.051 5.75 41.34 0.39453 13.285-5.3594 23.898-15.773 29.504-28.953 5.6094-13.184 5.75-28.051 0.39453-41.34-14.277-31.773-36.742-59.184-65.094-79.426-28.352-20.242-61.57-32.586-96.262-35.773v-58.176c0-19.293-10.289-37.117-27-46.766-16.707-9.6445-37.289-9.6445-54 0-16.707 9.6484-27 27.473-27 46.766v63.539c-30.406 6.2188-59.082 19.02-84.016 37.504-24.934 18.484-45.516 42.203-60.309 69.488-45.324 94.246-15.805 189.79 80.965 262.22v0.003907c20.168 14.668 41.34 27.898 63.359 39.598v241.2c-26.652-4.4258-49.484-21.551-61.199-45.898-7.2148-17.898-23.43-30.586-42.535-33.285-19.109-2.6992-38.203 5-50.094 20.195-11.895 15.199-14.773 35.586-7.5586 53.48 14.336 31.734 36.816 59.109 65.152 79.344 28.34 20.23 61.531 32.605 96.199 35.859v58.066c0 19.293 10.293 37.121 27 46.766 16.707 9.6445 37.293 9.6445 54 0 16.707-9.6445 27-27.473 27-46.766v-63.395c30.461-6.2422 59.184-19.094 84.133-37.648 24.949-18.555 45.523-42.363 60.266-69.742 45.109-93.961 15.805-189.47-80.316-262.04-20.352-15.016-41.766-28.527-64.082-40.426v-240.12c26.57 4.5781 49.332 21.621 61.199 45.828zm-216.29 3.8516h0.003906c10.617-18.473 27.25-32.746 47.121-40.43v168.12c-79.449-60.191-55.906-109.37-47.121-127.69zm202.21 446.04h0.003907c-10.562 18.562-27.188 32.926-47.09 40.68v-168.84c79.453 60.551 55.945 109.69 47.09 128.16z"/>
  <path d="m277.78 2594.2v419.69c0.79297 252 518.4 387.86 1005.1 387.86l-0.003906 0.003906c174.89 1.0508 349.38-16.742 520.45-53.066 18.828-4.2031 33.984-18.137 39.758-36.547 5.7695-18.41 1.2852-38.5-11.773-52.703s-32.699-20.363-51.527-16.156c-163.31 34.582-329.87 51.48-496.8 50.398-513.47 0-897.12-148.07-897.12-280.44v-235.47c177.12 134.64 545.07 205.74 897.16 205.74 77.762 0 155.02-3.2031 229.57-9.5391 19.047-1.8555 35.688-13.648 43.746-31.004 8.0586-17.355 6.332-37.676-4.5391-53.422-10.875-15.746-29.266-24.562-48.348-23.18-71.531 6.0859-145.69 9.1445-220.43 9.1445-513.47 0-897.12-148.03-897.12-280.44v0.003906c1.082-19.582 8.5391-38.27 21.242-53.211 184.14 124.88 537.3 190.8 875.88 190.8 52.777 0 105.27-1.4766 156.1-4.3906 19.289-1.1133 36.523-12.434 45.207-29.699 8.6836-17.262 7.4961-37.848-3.1133-54-10.609-16.148-29.031-25.414-48.324-24.301-48.742 2.8086-99.18 4.2109-149.87 4.2109-397.87 0-717.66-89.027-841.54-190.8-2.8359-3.1172-6.0273-5.8984-9.5039-8.2773-26.176-19.562-42.902-49.238-46.082-81.758v-235.44c177.12 134.75 545.07 205.92 897.16 205.92 62.785 0 123.05-1.9805 179.06-5.8672h0.003907c19.254-1.3438 36.328-12.859 44.789-30.207 8.4648-17.344 7.0273-37.887-3.7617-53.891-10.789-16-29.301-25.031-48.555-23.688-53.496 3.6016-111.24 5.6523-171.54 5.6523-513.47 0-897.12-148.25-897.12-280.8h0.003906c0.99609-19.574 8.3203-38.301 20.879-53.352 172.01 117.07 506.12 191.09 876.02 191.09 97.5 0.12891 194.93-5.1445 291.85-15.805 19.176-2.1484 35.75-14.363 43.48-32.047 7.7266-17.68 5.4336-38.141-6.0117-53.676-11.449-15.531-30.316-23.777-49.492-21.629-92.922 10.246-186.34 15.305-279.83 15.156-371.3 0-711.36-78.59-846.36-195.66-28.355-19.621-46.855-50.523-50.762-84.781v-235.66c177.16 134.71 545.15 205.85 897.3 205.85s720.21-71.172 897.34-205.92v84.457c0 19.293 10.293 37.121 27 46.766 16.707 9.6484 37.293 9.6484 54 0 16.707-9.6445 27-27.473 27-46.766v-266.98-1.2617 0.003906c-1.2695-45.66-18.289-89.473-48.168-124.02 30.363-35.039 47.426-79.645 48.203-126v-418.32c0-252.5-517.93-388.8-1005.3-388.8-487.33 0-1005.4 136.22-1005.4 388.8v418.21c0.77734 46.355 17.844 90.961 48.203 126-30.141 34.844-47.188 79.109-48.203 125.17v418.75c1.2031 46.031 18.312 90.223 48.422 125.06-30.098 34.758-47.188 78.887-48.348 124.85v419 1.0078c1.0078 46.004 18.043 90.211 48.168 124.99-29.957 34.641-46.98 78.598-48.168 124.38zm1902.5-1589.2c-3.1445 32.328-19.719 61.848-45.684 81.359-3.7695 2.5234-7.2031 5.5117-10.227 8.8945-124.13 101.59-443.73 190.44-841.36 190.44s-717.12-88.812-841.32-190.4v-0.003907c-3.0273-3.3906-6.4727-6.3789-10.258-8.8945-25.992-19.512-42.582-49.047-45.723-81.395v-235.48c177.16 134.71 545.15 206.07 897.3 206.07s720-71.172 897.27-205.88zm-897.27 531.83c-513.54 0-897.3-148.18-897.3-280.8 1.0625-19.578 8.4648-38.281 21.098-53.277 184.07 125.03 537.52 190.8 876.38 190.8 338.87 0 692.32-65.914 876.35-190.8 12.598 15.027 19.945 33.762 20.918 53.352-0.17969 132.55-384.05 280.73-897.45 280.73zm0-1230.8c513.54 0 897.27 148.21 897.27 280.8 0 132.59-383.87 280.8-897.27 280.8-513.39 0-897.3-148.18-897.3-280.8s383.76-280.8 897.3-280.8z"/>
 </g>
</svg>
