<?xml version="1.0" encoding="UTF-8"?>
<svg width="3600pt" height="3600pt" version="1.1" viewBox="0 0 3600 3600" xmlns="http://www.w3.org/2000/svg">
 <g>
  <path d="m846 1483.2c0 648-147.6 846-237.6 903.6-75.602 50.398-118.8 136.8-118.8 223.2 0 151.2 122.4 270 270 270h2080.8c147.6 0 270-122.4 270-270 0-90-43.199-172.8-118.8-223.2-90-61.199-237.6-259.2-237.6-903.6 0-604.8-367.2-846-637.2-946.8 3.6016-21.602 7.1992-46.801 7.1992-68.398 0-180-144-324-324-324s-324 144-324 324c0 21.602 3.6016 46.801 7.1992 68.398-270 97.203-637.2 342-637.2 946.8zm954-1195.2c100.8 0 180 79.199 180 180 0 10.801 0 18-3.6016 28.801-147.6-32.398-284.4-14.398-356.4 0 0-10.801-3.6016-18-3.6016-28.801 3.6016-100.8 82.801-180 183.6-180zm-190.8 360h3.6016s79.199-25.199 190.8-25.199c57.602 0 118.8 7.1992 187.2 28.801h3.6016c280.8 79.199 619.2 288 619.2 835.2 0 342 39.602 604.8 118.8 784.8h-1472.4c-39.602 0-72 32.398-72 72 0 39.602 32.398 72 72 72h1548 3.6016c28.801 39.602 61.199 68.398 97.199 93.602 36 25.199 57.602 64.801 57.602 104.4 0 68.398-57.602 126-126 126h-2080.8c-68.398 0-126-57.602-126-126 0-43.199 21.602-82.801 57.602-104.4 198-136.8 298.8-478.8 298.8-1022.4-0.003906-550.8 334.8-759.61 619.2-838.8z"/>
  <path d="m1836 3420c223.2 0 414-165.6 446.4-385.2l10.801-82.801h-914.4l10.801 82.801c32.398 219.6 223.2 385.2 446.4 385.2zm277.2-324c-46.801 108-158.4 180-277.2 180s-230.4-72-277.2-180z"/>
  <path d="m1080 2412h14.398c3.6016 0 10.801-3.6016 14.398-3.6016 3.6016 0 7.1992-3.6016 10.801-7.1992 3.6016-3.6016 7.1992-7.1992 10.801-7.1992 14.402-18 21.602-36 21.602-54s-7.1992-36-21.602-50.398c-3.6016-3.6016-7.1992-7.1992-10.801-7.1992-3.6016 0-7.1992-3.6016-10.801-7.1992-3.6016 0-7.1992-3.6016-14.398-3.6016-21.602-3.6016-46.801 3.6016-64.801 18-14.398 14.398-21.598 32.398-21.598 50.398s7.1992 36 21.602 50.398c14.398 14.402 32.398 21.602 50.398 21.602z"/>
 </g>
</svg>
